# xmcd
#
# Track frame offsets:
# 150
# 17018
# 35244
# 59367
# 75910
# 91281
# 109707
# 124982
# 148494
# 167611
# 180998
#
# Disc length: 2642 seconds
#
#
# Revision: 1
# Processed by: cddbd v1.4PL0 Copyright (c) Steve Scherf et al.
# Submitted via: FreeRIP 2.35 
#
DISCID=8e0a500b
DTITLE=The Gone Jackals - Bone to Pick
DYEAR=1995
DGENRE=Heavy Metal
TTITLE0=Get Outta Town
TTITLE1=Legacy
TTITLE2=Let'er Rip
TTITLE3=Drop the Hammer
TTITLE4=Born Bad
TTITLE5=You Don't Know a Thing About Me
TTITLE6=Black is White
TTITLE7=Trapped
TTITLE8=We Want Our Brothers Back
TTITLE9=Love Comes Crawling
TTITLE10=Not Buried Deep Enough
EXTD=
EXTT0=
EXTT1=
EXTT2=
EXTT3=
EXTT4=
EXTT5=
EXTT6=
EXTT7=
EXTT8=
EXTT9=
EXTT10=
PLAYORDER=
